<?xml version="1.0" encoding="UTF-8" standalone="no"?>
<svg
   xmlns:dc="http://purl.org/dc/elements/1.1/"
   xmlns:cc="http://creativecommons.org/ns#"
   xmlns:rdf="http://www.w3.org/1999/02/22-rdf-syntax-ns#"
   xmlns:svg="http://www.w3.org/2000/svg"
   xmlns="http://www.w3.org/2000/svg"
   xmlns:sodipodi="http://sodipodi.sourceforge.net/DTD/sodipodi-0.dtd"
   xmlns:inkscape="http://www.inkscape.org/namespaces/inkscape"
   height="404.00897"
   width="200"
   inkscape:version="1.0.1 (3bc2e813f5, 2020-09-07)"
   sodipodi:docname="fiber-drawing.svg"
   xml:space="preserve"
   viewBox="0 0 200 404.00896"
   y="0px"
   x="0px"
   id="Layer_1"
   version="1.1"><metadata
   id="metadata38"><rdf:RDF><cc:Work
       rdf:about=""><dc:format>image/svg+xml</dc:format><dc:type
         rdf:resource="http://purl.org/dc/dcmitype/StillImage" /><dc:title /></cc:Work></rdf:RDF></metadata><defs
   id="defs36" /><sodipodi:namedview
   lock-margins="true"
   fit-margin-bottom="0"
   fit-margin-right="0"
   fit-margin-left="0"
   fit-margin-top="0"
   inkscape:current-layer="g29"
   inkscape:window-maximized="1"
   inkscape:window-y="34"
   inkscape:window-x="3840"
   inkscape:cy="329.2502"
   inkscape:cx="-3.7336598"
   inkscape:zoom="1.4143984"
   showgrid="false"
   id="namedview34"
   inkscape:window-height="1014"
   inkscape:window-width="1920"
   inkscape:pageshadow="2"
   inkscape:pageopacity="0"
   guidetolerance="10"
   gridtolerance="10"
   objecttolerance="10"
   borderopacity="1"
   bordercolor="#666666"
   pagecolor="#ffffff"
   inkscape:document-rotation="0" />
<style
   id="style2"
   type="text/css">
	.st0{fill:none;stroke:#000000;stroke-miterlimit:10;}
	.st1{fill:none;}
	.st2{fill:#FFFFFF;}
</style>
<symbol
   transform="translate(-48.377337,-116.96062)"
   viewBox="-9.54 -6.5 19.08 12.99"
   id="New_Symbol">
	<polygon
   id="polygon4"
   points="-7.79,-6.5 -9.54,-6.5 -2.04,6.5 -0.29,6.5 " />
	<polygon
   id="polygon6"
   points="-2.88,-6.5 -4.63,-6.5 2.88,6.5 4.63,6.5 " />
	<polygon
   id="polygon8"
   points="2.04,-6.5 0.29,-6.5 7.79,6.5 9.54,6.5 " />
</symbol>

<g
   transform="matrix(3.2647731,0,0,3.2647731,-72.055818,-44.569857)"
   id="g935"><g
     id="g31"
     transform="rotate(-41.419024,-82.20663,87.931976)">
	
	
	
	
	<g
   id="g914"
   transform="matrix(1.5019327,1.329275,-1.329275,1.5019327,150.03162,-75.871828)"><g
     id="g1875"><g
       style="fill:#2962ff;fill-opacity:1"
       id="g17"
       transform="translate(0.0526)">
		<path
   style="fill:#2962ff;fill-opacity:1"
   id="path13"
   d="m 25.97,100.78 h -6.64 v 19.93 c 0.46,3.4 2.76,5.8 4.23,11.02 1.15,4.09 1.39,10.67 1.31,13.5" />
		<path
   style="fill:#2962ff;fill-opacity:1"
   id="path15"
   d="M 24.87,145.22" />
	</g><path
       id="path19"
       d="M 24.34,146.01"
       class="st1" /><path
       id="path21"
       d="M 20.57,142.64"
       class="st0" /><path
       style="fill:#2962ff;fill-opacity:1"
       id="path23"
       d="m 25.41,100.78 h 6.64 v 19.93 c -0.46,3.4 -2.76,5.8 -4.23,11.02 -1.15,4.09 -1.39,10.67 -1.31,13.5 v 1 l -1.63,-0.01 v -1" /><g
       id="g29">
		
		<path
   style="fill:#2962ff;fill-opacity:1;stroke:none;stroke-opacity:1"
   id="path27"
   d="m 26.52,142.19 c 0,1.22 -0.06,2.44 0.01,3.66 0.11,1.96 0.28,3.93 0.49,5.89 0.19,1.8 0.43,3.6 0.7,5.4 0.13,0.87 0.37,1.72 0.57,2.58 0.02,0.11 0.1,0.2 0.24,0.31 0.09,-0.27 0.21,-0.53 0.26,-0.8 0.24,-1.43 0.51,-2.86 0.68,-4.3 0.19,-1.54 0.29,-3.08 0.42,-4.62 0.04,-0.51 0.07,-1.02 0.09,-1.53 0.04,-1.02 0.05,-2.05 0.09,-3.07 0.03,-0.69 0.07,-1.39 0.17,-2.07 0.07,-0.49 0.36,-0.67 0.88,-0.67 0.53,0 0.84,0.19 0.93,0.68 0.16,0.9 0.25,1.81 0.39,2.71 0.35,2.26 0.65,4.52 1.07,6.77 0.3,1.61 0.75,3.2 1.18,4.79 0.15,0.58 0.43,1.13 0.66,1.69 0.07,0.16 0.18,0.3 0.33,0.53 0.11,-0.21 0.19,-0.33 0.24,-0.47 0.52,-1.4 0.79,-2.84 0.92,-4.3 0.16,-1.78 0.34,-3.56 0.41,-5.34 0.09,-2.16 0.07,-4.33 0.1,-6.49 0.01,-0.54 0.39,-0.84 0.99,-0.78 0.41,0.04 0.72,0.3 0.77,0.67 0.05,0.35 0.07,0.7 0.1,1.05 0.14,1.51 0.22,3.02 0.45,4.52 0.29,1.94 0.67,3.88 1.09,5.8 0.33,1.5 0.79,2.99 1.52,4.4 0.14,0.27 0.34,0.53 0.51,0.8 0.06,0 0.11,-0.01 0.17,-0.01 0.15,-0.3 0.34,-0.59 0.45,-0.9 0.56,-1.58 0.86,-3.2 0.98,-4.84 0.13,-1.74 0.28,-3.47 0.32,-5.21 0.02,-1.02 -0.2,-2.04 -0.26,-3.06 -0.06,-0.89 -0.07,-1.79 -0.05,-2.69 0.01,-0.45 0.38,-0.73 0.86,-0.75 0.49,-0.02 0.88,0.2 0.98,0.65 0.13,0.62 0.24,1.24 0.27,1.86 0.06,1.38 0,2.76 0.11,4.13 0.1,1.2 0.32,2.4 0.55,3.59 0.35,1.75 0.84,3.46 1.55,5.14 0.17,0.41 0,0.67 -0.52,0.82 -0.48,0.15 -0.95,0.02 -1.1,-0.38 -0.31,-0.77 -0.57,-1.55 -0.85,-2.33 -0.03,-0.07 -0.05,-0.15 -0.14,-0.23 -0.12,0.59 -0.23,1.18 -0.35,1.76 -0.24,1.1 -0.49,2.21 -1.22,3.18 -0.23,0.31 -0.59,0.6 -0.98,0.77 -0.75,0.32 -1.63,0.08 -2.12,-0.61 -0.46,-0.64 -0.9,-1.33 -1.16,-2.04 -0.48,-1.3 -0.83,-2.63 -1.23,-3.94 -0.03,-0.11 -0.07,-0.22 -0.18,-0.33 -0.04,0.28 -0.08,0.56 -0.13,0.84 -0.23,1.24 -0.4,2.49 -0.71,3.71 -0.18,0.7 -0.5,1.41 -0.94,2.03 -0.67,0.94 -1.93,0.94 -2.65,0.01 -0.43,-0.55 -0.76,-1.17 -1.01,-1.8 -0.81,-2.07 -1.26,-4.2 -1.65,-6.35 -0.02,-0.13 -0.06,-0.26 -0.16,-0.39 -0.05,0.46 -0.11,0.92 -0.15,1.38 -0.17,1.97 -0.4,3.93 -0.96,5.85 -0.16,0.57 -0.43,1.14 -0.79,1.64 -0.52,0.74 -1.68,0.74 -2.27,0.03 -0.81,-0.98 -1.15,-2.1 -1.31,-3.25 -0.19,-1.32 -0.34,-2.65 -0.49,-3.97 -0.18,-1.57 -0.41,-3.14 -0.52,-4.72 -0.14,-2.09 -0.19,-4.18 -0.26,-6.27 -0.01,-0.38 0.05,-0.77 0.08,-1.16 0.51,0.03 1.04,0.03 1.58,0.03 z" />
	</g></g></g>
</g></g>
</svg>
