<?xml version="1.0" encoding="UTF-8" standalone="no"?>
<svg
   xmlns:dc="http://purl.org/dc/elements/1.1/"
   xmlns:cc="http://creativecommons.org/ns#"
   xmlns:rdf="http://www.w3.org/1999/02/22-rdf-syntax-ns#"
   xmlns:svg="http://www.w3.org/2000/svg"
   xmlns="http://www.w3.org/2000/svg"
   xmlns:sodipodi="http://sodipodi.sourceforge.net/DTD/sodipodi-0.dtd"
   xmlns:inkscape="http://www.inkscape.org/namespaces/inkscape"
   height="500.4646pt"
   viewBox="0 -13 527.00009 500.4646"
   width="527.00006pt"
   version="1.1"
   id="svg4"
   sodipodi:docname="modeling-3d.svg"
   inkscape:version="1.0.1 (3bc2e813f5, 2020-09-07)">
  <metadata
     id="metadata10">
    <rdf:RDF>
      <cc:Work
         rdf:about="">
        <dc:format>image/svg+xml</dc:format>
        <dc:type
           rdf:resource="http://purl.org/dc/dcmitype/StillImage" />
        <dc:title></dc:title>
      </cc:Work>
    </rdf:RDF>
  </metadata>
  <defs
     id="defs8" />
  <sodipodi:namedview
     pagecolor="#ffffff"
     bordercolor="#666666"
     borderopacity="1"
     objecttolerance="10"
     gridtolerance="10"
     guidetolerance="10"
     inkscape:pageopacity="0"
     inkscape:pageshadow="2"
     inkscape:window-width="1920"
     inkscape:window-height="1014"
     id="namedview6"
     showgrid="false"
     inkscape:zoom="0.62988281"
     inkscape:cx="351.33338"
     inkscape:cy="206.98892"
     inkscape:window-x="3840"
     inkscape:window-y="34"
     inkscape:window-maximized="1"
     inkscape:current-layer="svg4"
     lock-margins="true"
     fit-margin-top="0"
     fit-margin-left="0"
     fit-margin-right="0"
     fit-margin-bottom="0" />
  <path
     d="m 519.50003,273.03657 c -0.004,-2.63672 -1.46484,-5.16406 -3.75,-6.48437 l -120.73047,-69.70313 0.3125,-122.910157 c 0,-2.644531 -1.45703,-5.191406 -3.75,-6.511718 L 267.00784,-4.4985869 c -2.32422,-1.34375 -5.19531,-1.339844 -7.51953,0.011719 L 135.75394,67.419382 c -2.31641,1.160156 -3.75391,3.964844 -3.76172,6.484375 l -0.3125,122.851563 -120.09375,69.79297 c -2.3164073,1.15625 -3.7539073,3.96485 -3.7617193,6.48047 l -0.324219,127.1875 c -0.00781,2.68359 1.425781,5.17188 3.7500003,6.51172 l 124.574218,71.92578 c 2.05078,1.53906 5.39062,1.23047 7.51953,-0.0117 l 57.28516,-33.29297 c 3.58203,-2.08203 4.79687,-6.67187 2.71484,-10.2539 -2.07812,-3.57813 -6.67187,-4.79688 -10.25,-2.71485 l -45.98828,26.72266 0.28125,-109.8086 108.74219,-63.19531 -0.28125,109.8125 -30.90235,17.95703 c -3.58203,2.08203 -4.79687,6.67188 -2.71875,10.25391 2.08203,3.58203 6.67188,4.79687 10.25391,2.71484 l 30.87109,-17.9375 120.8086,69.75 c 2.05468,1.53907 5.39453,1.23047 7.51953,-0.008 l 123.76562,-71.92578 c 2.30469,-1.33984 3.72657,-3.80078 3.73047,-6.46484 l 0.10938,-42.89454 c 0.0117,-4.14453 -3.33985,-7.50781 -7.48047,-7.51953 -0.004,0 -0.0117,0 -0.0195,0 -4.13282,0 -7.48828,3.34375 -7.5,7.48047 l -0.0977,38.58985 -108.74219,63.19531 0.28125,-109.8125 108.74219,-63.19141 -0.0977,36.69532 c -0.008,4.14453 3.33985,7.50781 7.48047,7.51953 h 0.0195 c 4.13672,0 7.49219,-3.34375 7.5,-7.48047 l 0.12899,-49.76546 c 0,-0.0117 0,-0.0234 0,-0.0312 z M 256.55472,150.16938 256.27347,260.06001 146.67972,196.78267 146.96097,86.892038 Z m -117.45313,59.6211 109.59766,63.27734 -108.8125,63.23438 -109.597656,-63.27344 z m 132.02735,76.23047 109.59765,63.27343 -0.28125,109.89063 -109.59765,-63.27344 z M 388.22269,336.3061 278.64847,273.04048 387.46487,209.8061 497.03909,273.06782 Z M 263.26956,10.665476 372.86722,73.942819 314.31644,107.96626 c -3.58203,2.08203 -4.79688,6.67187 -2.71485,10.25391 2.07813,3.58203 6.67188,4.79687 10.25391,2.71484 l 58.4414,-33.960941 -0.27734,109.781251 -108.74219,63.19531 0.28125,-109.78515 19.85938,-11.54297 c 3.58203,-2.07813 4.79687,-6.66797 2.71484,-10.25 -2.08203,-3.58203 -6.67187,-4.80078 -10.25,-2.71875 L 264.05472,137.1772 154.45706,73.899851 Z M 22.793001,286.02095 132.38675,349.29438 132.1055,459.18501 22.511751,395.91157 Z m 0,0"
     id="path2"
     style="fill:#2962ff;fill-opacity:1;stroke:#2962ff;stroke-width:15;stroke-miterlimit:4;stroke-dasharray:none;stroke-opacity:1;stroke-linecap:square" />
</svg>
